<?xml version="1.0" encoding="UTF-8" standalone="no"?>
<svg width="110px" height="110px" viewBox="0 0 110 110" version="1.1" xmlns="http://www.w3.org/2000/svg" xmlns:xlink="http://www.w3.org/1999/xlink" xmlns:sketch="http://www.bohemiancoding.com/sketch/ns">
    <!-- Generator: Sketch 3.4.4 (17249) - http://www.bohemiancoding.com/sketch -->
    <title>logo</title>
    <desc>Created with Sketch.</desc>
    <defs>
        <path id="path-1" d="M0,0.0528279267 L109.947324,0.0528279267 L109.947324,110 L0,110 L0,0.0528279267 Z"></path>
    </defs>
    <g id="Blog-item" stroke="none" stroke-width="1" fill="none" fill-rule="evenodd" sketch:type="MSPage">
        <g id="1500" sketch:type="MSArtboardGroup" transform="translate(-55.000000, -55.000000)">
            <g id="logo" sketch:type="MSLayerGroup" transform="translate(55.000000, 55.000000)">
                <path d="M20.65745,81.512141 C24.1433655,82.1172186 25.6539289,83.5833681 25.6539289,86.2132059 C25.6539289,88.8196939 23.3299852,90.9840874 20.0299852,90.9840874 C16.3581542,90.9840874 14.4756824,88.7033329 13.7784993,85.8641227 L15.4749782,85.0030508 C15.9165275,87.4931777 17.4270908,89.261866 20.0299852,89.261866 C22.30745,89.261866 23.7018162,88.0284386 23.7018162,86.2830226 C23.7018162,84.3746234 22.5863232,83.5136291 19.6813937,83.0481848 C16.4277951,82.5361185 14.4756824,80.8837913 14.4756824,78.2773032 C14.4756824,75.8337207 16.6601894,74.0416827 19.7046331,74.0416827 C22.679281,74.0416827 24.6081542,75.6242708 25.3750556,77.9746869 L23.8180134,78.9289252 C23.1905486,76.7646093 21.7264641,75.7173597 19.6813937,75.7173597 C17.8687176,75.7173597 16.3348373,76.6016262 16.3348373,78.3471199 C16.3348373,79.9761749 17.7525204,81.0001523 20.65745,81.512141" id="Fill-1" fill="#221F20" sketch:type="MSShapeGroup"></path>
                <path d="M39.7136021,86.329536 C38.9234613,88.7731961 37.3199401,90.9840564 34.0431021,90.9840564 C29.6275317,90.9840564 27.4895035,87.3767856 27.4895035,82.5128928 C27.4895035,77.6489224 30.0691585,74.0417292 34.1592993,74.0417292 C37.2966232,74.0417292 38.853743,75.8336897 39.6206444,78.2308054 L37.9474049,79.0219831 C37.2502218,76.8343949 36.0649331,75.7638731 34.089581,75.7638731 C31.0684542,75.7638731 29.4881725,78.6962496 29.4881725,82.5128928 C29.4881725,86.329536 30.6501444,89.2619126 34.089581,89.2619126 C36.3670458,89.2619126 37.4826162,87.6561298 38.1564824,85.6313695 L39.7136021,86.329536 Z" id="Fill-3" fill="#221F20" sketch:type="MSShapeGroup"></path>
                <path d="M42.1299148,74.3675247 L44.0820275,74.3675247 L44.0820275,81.4888999 L51.007457,81.4888999 L51.007457,74.3675247 L52.9595697,74.3675247 L52.9595697,90.6582299 L51.007457,90.6582299 L51.007457,83.2110437 L44.0820275,83.2110437 L44.0820275,90.6582299 L42.1299148,90.6582299 L42.1299148,74.3675247 Z" id="Fill-5" fill="#221F20" sketch:type="MSShapeGroup"></path>
                <path d="M66.0895648,82.5128773 C66.0895648,78.41689 64.6951986,75.7638575 61.8831493,75.7638575 C59.0712549,75.7638575 57.6767338,78.41689 57.6767338,82.5128773 C57.6767338,86.6088646 59.0712549,89.261897 61.8831493,89.261897 C64.6951986,89.261897 66.0895648,86.6088646 66.0895648,82.5128773 M61.8831493,90.9840409 C58.0486423,90.9840409 55.6782972,87.8189422 55.6782972,82.5128773 C55.6782972,77.2068124 58.0486423,74.0417137 61.8831493,74.0417137 C65.7178113,74.0417137 68.0882338,77.2068124 68.0882338,82.5128773 C68.0882338,87.8189422 65.7178113,90.9840409 61.8831493,90.9840409" id="Fill-7" fill="#221F20" sketch:type="MSShapeGroup"></path>
                <path d="M80.6491648,82.5128773 C80.6491648,78.41689 79.2547986,75.7638575 76.4427493,75.7638575 C73.6307,75.7638575 72.2363338,78.41689 72.2363338,82.5128773 C72.2363338,86.6088646 73.6307,89.261897 76.4427493,89.261897 C79.2547986,89.261897 80.6491648,86.6088646 80.6491648,82.5128773 M76.4427493,90.9840409 C72.6082423,90.9840409 70.2377423,87.8189422 70.2377423,82.5128773 C70.2377423,77.2068124 72.6082423,74.0417137 76.4427493,74.0417137 C80.2772563,74.0417137 82.6476789,77.2068124 82.6476789,82.5128773 C82.6476789,87.8189422 80.2772563,90.9840409 76.4427493,90.9840409" id="Fill-9" fill="#221F20" sketch:type="MSShapeGroup"></path>
                <path d="M85.5291444,74.3675247 L87.4811796,74.3675247 L87.4811796,88.936086 L95.7080176,88.936086 L95.7080176,90.6582299 L85.5291444,90.6582299 L85.5291444,74.3675247 Z" id="Fill-11" fill="#221F20" sketch:type="MSShapeGroup"></path>
                <path d="M24.5579648,28.1661982 C24.5579648,24.0469386 22.8382465,21.7429894 19.3057746,21.7429894 L17.6790141,21.7429894 L17.6790141,34.5894069 L19.3057746,34.5894069 C22.8382465,34.5894069 24.5579648,32.2854577 24.5579648,28.1661982 L24.5579648,28.1661982 Z M15.7269014,20.0208456 L19.4219718,20.0208456 C24.0931761,20.0208456 26.5565563,23.4651333 26.5565563,28.1661982 C26.5565563,32.867263 24.0931761,36.3115508 19.4219718,36.3115508 L15.7269014,36.3115508 L15.7269014,20.0208456 Z" id="Fill-13" fill="#221F20" sketch:type="MSShapeGroup"></path>
                <path d="M29.8794704,20.0208456 L39.733069,20.0208456 L39.733069,21.7429894 L31.8315831,21.7429894 L31.8315831,27.0258597 L39.0823648,27.0258597 L39.0823648,28.7480035 L31.8315831,28.7480035 L31.8315831,34.5894069 L39.8027873,34.5894069 L39.8027873,36.3115508 L29.8794704,36.3115508 L29.8794704,20.0208456 Z" id="Fill-15" fill="#221F20" sketch:type="MSShapeGroup"></path>
                <mask id="mask-2" sketch:name="Clip 18" fill="white">
                    <use xlink:href="#path-1"></use>
                </mask>
                <g id="Clip-18"></g>
                <path d="M1.74295775,54.1538999 L54.0249507,54.1538999 L54.0249507,1.79824401 L1.74295775,1.79824401 L1.74295775,54.1538999 Z M55.767831,54.1538999 L108.049437,54.1538999 L108.049437,1.79824401 L55.767831,1.79824401 L55.767831,54.1538999 Z M1.74295775,108.254584 L108.049437,108.254584 L108.049437,55.8993159 L1.74295775,55.8993159 L1.74295775,108.254584 Z M109.792394,110 L0,110 L0,0.0528279267 L109.792394,0.0528279267 L109.792394,110 Z" id="Fill-17" fill="#221F20" sketch:type="MSShapeGroup" mask="url(#mask-2)"></path>
            </g>
        </g>
    </g>
</svg>